<?xml version="1.0" encoding="utf-8"?>
<!-- Generator: Adobe Illustrator 25.4.1, SVG Export Plug-In . SVG Version: 6.00 Build 0)  -->
<svg version="1.1" id="Layer_1" xmlns="http://www.w3.org/2000/svg" xmlns:xlink="http://www.w3.org/1999/xlink" x="0px" y="0px"
	 viewBox="0 0 600 200" style="enable-background:new 0 0 600 200;" xml:space="preserve">
<style type="text/css">
	.st0{fill:#FFFFFF;}
	.st1{opacity:0.2;fill:#167EC2;enable-background:new    ;}
	.st2{fill:#F17E2B;}
	.st3{fill:#83C341;}
	.st4{fill:#D42329;}
	.st5{fill:#167EC2;}
	.st6{fill:#5FCAF4;}
</style>
<g>
	<g>
		<path class="st0" d="M230.27,82.3V52.56c0-7.75,6.22-13.99,13.99-13.99h54.41v8.65h-54.41c-2.92,0-5.26,2.43-5.26,5.34V82.3
			c0,2.92,2.34,5.26,5.26,5.26h42.35c2.92,0,5.26-2.34,5.26-5.26v-10.5h-34.69v-8.73h43.33V82.3c0,7.75-6.22,13.99-13.91,13.99
			h-42.35C236.49,96.29,230.27,90.08,230.27,82.3z"/>
		<path class="st0" d="M328.65,84.26V65.99c0-6.62,5.41-12.05,12.05-12.05h42.35c6.62,0,12.05,5.41,12.05,12.05v18.27
			c0,6.62-5.41,12.05-12.05,12.05H340.7C334.06,96.29,328.65,90.89,328.65,84.26z M337.38,65.99v18.27c0,1.85,1.45,3.32,3.32,3.32
			h42.35c1.85,0,3.32-1.45,3.32-3.32V65.99c0-1.85-1.45-3.32-3.32-3.32H340.7C338.83,62.67,337.38,64.12,337.38,65.99z"/>
		<path class="st0" d="M404.8,34.69h8.73v52.87h45.68c1.85,0,3.32-1.45,3.32-3.32V65.97c0-1.85-1.45-3.32-3.32-3.32h-41.89v-8.73
			h41.89c6.62,0,12.05,5.41,12.05,12.05v18.27c0,6.62-5.41,12.05-12.05,12.05H404.8V34.69z"/>
		<path class="st0" d="M480.95,84.26v-4.05c0-6.62,5.41-12.05,12.05-12.05h41.89v8.65H493c-1.85,0-3.32,1.53-3.32,3.39v4.05
			c0,1.85,1.47,3.32,3.32,3.32h45.68V65.97c0-1.85-1.47-3.32-3.32-3.32h-52.47v-8.73h52.47c6.62,0,12.05,5.41,12.05,12.05v30.32H493
			C486.36,96.29,480.95,90.89,480.95,84.26z"/>
		<path class="st0" d="M557.1,96.29v-61.6h8.73v61.6H557.1z"/>
		<g>
			<path class="st0" d="M310.21,96.29v-61.6h8.73v61.6H310.21z"/>
			<g>
				<path class="st0" d="M230.27,110.03h53.94c7.35,0,13.31,5.96,13.31,13.39v7.35c0,3.49-1.32,4.41-3.64,6.9
					c2.32,2.47,3.64,5.73,3.64,9.2v5.03c0,7.43-5.96,13.39-13.31,13.39h-53.94C230.27,165.29,230.27,110.03,230.27,110.03z
					 M289.24,151.89v-5.03c0-2.79-2.24-5.03-5.03-5.03h-41.93v-8.37h41.93c2.79,0,5.03,0.09,5.03-2.7v-7.35
					c0-2.79-2.24-5.11-5.03-5.11h-45.57v38.61h45.57C286.98,156.92,289.24,154.68,289.24,151.89z"/>
				<path class="st0" d="M306.8,136.26c0-6.35,5.17-11.52,11.52-11.52h29.94v8.35h-29.94c-1.79,0-3.17,1.38-3.17,3.17v29.02h-8.35
					V136.26z"/>
				<path class="st0" d="M356.78,153.75v-3.88c0-6.35,5.2-11.52,11.52-11.52h40.1v8.28h-40.1c-1.77,0-3.17,1.47-3.17,3.26v3.88
					c0,1.79,1.41,3.17,3.17,3.17h43.72v-20.66c0-1.79-1.38-3.17-3.17-3.17h-50.21v-8.35h50.21c6.35,0,11.52,5.2,11.52,11.52v29.02
					h-52.09C361.98,165.29,356.78,160.09,356.78,153.75z"/>
				<path class="st0" d="M484.93,136.26c0-1.79-1.38-3.17-3.17-3.17h-43.72v32.2h-8.35v-40.54h52.09c6.35,0,11.52,5.2,11.52,11.52
					v29.02h-8.35v-29.02H484.93z"/>
				<path class="st0" d="M502.56,153.75v-17.48c0-6.35,5.2-11.52,11.52-11.52h40.1v8.35h-40.1c-1.77,0-3.17,1.38-3.17,3.17v17.48
					c0,1.79,1.41,3.17,3.17,3.17h43.72v-47.27h8.35v55.64h-52.09C507.74,165.29,502.56,160.09,502.56,153.75z"/>
			</g>
		</g>
	</g>
	<g>
		<path class="st1" d="M172.9,95.7V81.22h-10.09l-0.06,5.73C162.75,86.95,165.05,93.27,172.9,95.7z"/>
		<path class="st2" d="M105.08,145.06c-17.82,0-33.22-12.35-33.22-32.84V98.28H48.08c-7.86,0-14.22,6.37-14.22,14.22v51.85
			c0,7.86,6.37,14.22,14.22,14.22h51.85c7.86,0,14.22-6.37,14.22-14.22v-19.27h-9.07V145.06z"/>
		<path class="st3" d="M71.86,71.61c0-17.06,12.78-32.43,34.13-32.43h8.13v-6.43c0-6.24-5.07-11.33-11.33-11.33H61.58
			c-6.24,0-11.33,5.09-11.33,11.33v41.27c0,6.26,5.07,11.33,11.33,11.33h10.31V71.61H71.86z"/>
		<path class="st4" d="M203.53,66.89h-12.18c0.17,1.36,0.3,2.7,0.3,3.92v43.87c0,0.6-0.06,1.17-0.11,1.77h12.01
			c4.83,0,8.77-3.94,8.77-8.77V75.66C212.3,70.83,208.36,66.89,203.53,66.89z"/>
		<path class="st5" d="M154.51,45.44H105.7c-14.22,0-27.41,11.05-27.41,26.3v39.71c0,13.65,10.29,27.13,27.75,27.13l49.66-0.04
			c13.95,0.04,29.58-8.43,29.58-25.72V72.74C185.25,58.26,174.16,45.44,154.51,45.44z M178.89,113.29
			c0,10.5-10.14,18.91-21.23,18.91h-50.06c-13.73,0-22.76-10.2-22.76-21.68V71.08c0-9.48,8.07-19.23,20-19.21h50.83
			c14.12,0,23.25,10.99,23.25,20.72v40.69H178.89z"/>
		<path class="st6" d="M178.89,72.62v40.69c0,1.09-0.13,2.13-0.34,3.15H185c0.17-1.17,0.28-2.38,0.28-3.64V72.74
			c0-1.98-0.23-3.94-0.64-5.83h-6.75C178.53,68.78,178.89,70.72,178.89,72.62z"/>
		<path class="st5" d="M150.69,58.33h5.88c8.99-0.02,16.29,7.03,16.33,16.12v6.84h-10.09v-0.77l-0.02-6.05
			c-0.02-3.41-3.41-6.07-6.81-6.05h-4.28l-44.48-0.17c-3.41-0.02-6.15,2.81-6.18,6.22l-0.15,34.8c0,3.41,2.73,6.15,6.13,6.18
			l49.55,0.19c3.41,0.02,6.15-2.7,6.18-6.13l0.02-6.05v-0.77l-0.02-5.54l-24.53-0.06l0.04-10.22l28.15,0.13c0,0,6.54,0.45,6.49,9.6
			l-0.04,12.93c-0.04,9.07-7.35,16.33-16.33,16.31l-49.55-0.19c-9.07-0.04-16.33-7.35-16.29-16.42l0.15-34.8
			c0.02-9.07,7.35-16.33,16.42-16.31L150.69,58.33z"/>
		<path class="st1" d="M114.11,74v-5.73l-6.94-0.02c-3.41-0.02-6.15,2.81-6.18,6.22l-0.04,10.86h1.85
			C109.04,85.33,114.11,80.26,114.11,74z"/>
		<g>
			<path class="st6" d="M84.83,85.33V71.1c0-9.48,8.07-19.23,20-19.21h9.33v-6.43h-8.45c-14.22,0-27.41,11.05-27.41,26.3v13.59h6.54
				V85.33z"/>
			<path class="st6" d="M90.81,74.43l-0.04,10.9h10.22l0.04-10.86c0-3.41,2.77-6.24,6.18-6.22l6.94,0.02V58.16l-6.92-0.02
				C98.16,58.09,90.86,65.35,90.81,74.43z"/>
		</g>
		<g>
			<path class="st6" d="M114.11,138.59v-6.37h-6.56c-13.73,0-22.76-10.2-22.76-21.68V98.3h-6.56v13.18
				c0,13.65,10.29,27.13,27.75,27.13L114.11,138.59z"/>
			<path class="st6" d="M106.93,125.64l7.18,0.02v-10.22l-7.13-0.02c-3.41-0.02-6.13-2.77-6.13-6.18l0.04-10.88
				c-0.34-0.02-0.66-0.11-1-0.11h-9.2l-0.04,10.95C90.6,118.29,97.84,125.62,106.93,125.64z"/>
		</g>
		<g>
			<path class="st6" d="M172.86,109.5l0.04-12.93c0.04-9.16-6.49-9.6-6.49-9.6l-3.66-0.02v11.84l0.02,3.88v0.77l-0.02,4.22
				c0,4.77,3.83,8.62,8.56,8.75C172.29,114.29,172.84,111.97,172.86,109.5z"/>
			<path class="st6" d="M162.79,75.17l0.02,5.3v0.75h10.09v-6.84c0-2.73-0.68-5.26-1.85-7.5C166.58,67.14,163.02,70.7,162.79,75.17z
				"/>
		</g>
		<path class="st5" d="M131.83,144.95c0,0-18.78-0.02-24.77,0.75c-6.09,0.79-9.33,4.49-9.33,4.49h34.09h34.09
			c0,0-3.24-3.73-9.33-4.49C150.63,144.95,131.83,144.95,131.83,144.95z"/>
		<path class="st1" d="M107,115.59l7.15,0.02v-2.98c0-7.52-5.86-13.61-13.22-14.12l-0.04,10.9
			C100.87,112.82,103.61,115.57,107,115.59z"/>
	</g>
</g>
</svg>
